<?xml version="1.0" encoding="UTF-8"?><svg xmlns="http://www.w3.org/2000/svg" viewBox="0 0 48 48"><path d="M38.06,22.44c.04-.95.11-2.06-.47-2.34-.58-.29-1.82-.59-2.43-.51-4.59.57-7.62.76-12.21.4-2.12-.17-3.55-.73-5.48-.25-.2.05-.45.03-.74,0,.8-.73,1.59-1.4,3-2.43.95-.69,4.27-1.96,4.04-3.02-.17-.74-.43-.88-.84-1.37-.42-.52-.6-.49-.98-1.04,0,0-.57-.79-1.23-.26-.65.53-4.73,3.48-8.53,6.53-.14.11-1.77,1.27-2.23,2.5-.2.53.06,1.08.16,1.21,3.37,4.25,4.97,5.71,10.66,11.3,1.07,1.38,3.81-2.4,2.66-3.48-1.94-1.5-3.95-3.28-5.76-5.16,3.28.44,5.55.32,10.7.58,2.55.03,5.29-.96,7.84-.93.51,0,1.03,0,1.51-.28.48-.29.3-.66.33-1.46Z"/></svg>