<?xml version="1.0" encoding="UTF-8"?><svg id="Layer_1" xmlns="http://www.w3.org/2000/svg" viewBox="0 0 48 48"><path d="M32.93,17.12c.54-.82,2.72-1.77,2.85-2.82.07-.56-1.91-2.23-2.43-2.66-.67-.56-2.4,1.06-2.94,1.47-2.61,1.99-4.23,3.55-6.66,5.85-.61-.72-1.16-1.42-2.17-2.59-.58-.68-3.31-3.43-4.03-3.97-2.91-2.19-2.88-.63-4.74,1.25-.37,1.08.09.98.67,1.77s1.4,1.36,2.17,1.98c1.36,1.09,2.57,2.35,3.77,3.61.34.35.67.71,1.01,1.06-.18.17-.35.33-.54.5-2.18,2.14-3.8,5.16-5.98,7.29-.44.43-.88.87-1.08,1.48-.2.61.21.72.75,1.31.64.71,1.36,1.55,2.05,1.26.69-.29,1.96-1.13,2.42-1.69,2.07-2.55,3.77-4.54,5.68-6.49.61.73,1.22,1.46,1.91,2.11.73.68,1.55,1.26,2.33,1.89,1.62,1.31,3.07,2.89,5.1,3.59.1.04.21.07.33.04.15-.04.27-.17.37-.29.45-.52.22-1.16.54-1.75.32-.6.62-1.17.43-1.72l-.15-.26c-2.56-1.51-5.28-4.35-7.55-6.77.35-.32.7-.63,1.08-.97,1.91-1.68,3.52-2.49,4.82-4.46Z"/></svg>