<?xml version="1.0" encoding="UTF-8"?><svg id="Layer_1" xmlns="http://www.w3.org/2000/svg" viewBox="0 0 202.06 43.94"><path d="M17.72,33.38c-.12,3.24-.3,2.87-1.99,3.02-5.2.37-5.15.36-5.15-.3.03-.43.12-.89.11-1.43-.06-8.08.33-16.03.82-24.01.02-.36-.05-.89.67-.88,9.55-.61,25.33-.28,26.23-.34s.97.6.97.6c-.08,2.21,1.12,5.28-.13,5.87-.68.32-10.06.6-10.8.54-5.65-.41-5.2-.05-9.42.05-.84-.03-.81.13-.65,3.78l.04,1.6c.13.74.11,1.04.65,1.33.63.34,1.11.29,2.57.08,1.39-.2,3.96-.01,4.09-.01,5.38,0,2.19.06,7.57.06l1.68-.04c.68,0,1.22.08,1.04,2.53-.11,1.46-.42,2.58-.7,2.86-.5.52-1.92.55-2.64.56-4.72.05-4.59.17-9.29-.29-2.37-.23-3.46-.87-4.54-.52s-1.09,1.97-1.09,2.07c-.01.85.15,1.43,0,2.58"/><path d="M47.37,16.46c2.03-3.22,2.95-4.59,7-6.16s8.59-1.28,12.85-.41c1.64.33,3.35.8,4.49,2.02.78.83,2.02,1.66,2.7,2.58.52.7.98,1.45,1.44,2.19.51.82.77,1.75.98,2.69.33,1.51-.03,3.16.17,4.7.19,1.42.3,2.93-.29,4.23-.43.95-.37,2.41-1.13,3.13-1.26,1.2-2.14,1.72-3.4,2.93-1.01.96-3.25,1.91-4.51,2.52-1.59.76-3.41.85-5.17.74-6.5-.4-13.07-3.74-16.09-9.51-.77-1.47-1.3-3.1-1.23-4.75.07-1.75.8-4.76,1.71-6.26l.48-.63ZM52.07,20.01c-.76,2.03.12,4.42,1.37,6.2s3.12,3.02,5.11,3.9c1.01.45,2.07.81,3.17.93,2.43.27,3.9-.51,5.83-2.01.8-.62,1.71-1.81,2.13-2.72.5-1.07.59-2.32.48-3.5-.24-2.38-.33-4.54-2.11-6.15-1.99-1.8-4.87-2.28-7.55-2.09-1.7.12-3.41.5-4.9,1.32s-2.77,2.11-3.35,3.72l-.17.41Z"/><path d="M116.11,23.3c.1,2.3-1.19,4.46-2.83,6.08s-3.15,3.14-4.95,4.56c-1.59,1.26-3.6,2.41-5.53,3.03-1.28.41-2.65.42-3.98.59-1.99.25-3.93.05-5.72-.84-1.06-.53-1.99-.7-2.85-1.52-1.3-1.24-2.9-2.16-4-3.58-1.32-1.7-1.76-3.89-2.16-6-.38-1.98-.76-3.96-.89-5.97-.06-.92.23-1.4.61-2.24.34-.75,1.13-1.63,1.76-2.16,1.24-1.03,1.91-2.23,3.07-3.35,1.58-1.52,3.56-2.11,5.9-3.18,1.61-.73,3.85-.9,5.62-.85,1.56.04,3.9.11,5.33.74,1.26.57,2.5,1.2,3.65,1.98,4.04,2.75,6.7,7.43,7.01,12.3l-.03.39ZM108.6,22.31c-.33-4.21-3.13-7.44-7.25-8.38-4.11-.93-8.57,1.93-10.68,5.58-.5.86-.87,1.83-.91,2.82-.07,2.05,1.26,3.87,2.59,5.44,1.28,1.51,2.74,2.16,4.63,2.76,1.76.56,3.8.38,5.48-.36,3.36-1.48,5.26-2.77,6.03-6.37l.11-1.5Z"/><path d="M122.51,27.25c-.12-3.58-.34-6.87,1.26-9.82s4.28-4.15,6.94-6.18c2.18-1.67,4.66-2.43,7.4-2.65,2.79-.23,5.55.73,8,2.09,2.78,1.54,4.53,3.2,5.91,5.64.69,1.21,1.17,2.39,1.54,3.74.63,2.32.39,4.92-.15,7.26-.33,1.44-.88,3.01-1.63,4.28-2.13,3.66-7.11,5.56-11.31,6.09-3.93.5-8.08-.04-11.45-2.12-2.84-1.76-5.51-3.87-6.28-7.12l-.23-1.19ZM130.84,27.42c1.79,2.44,4.02,4.29,7.04,4.2s6.1-1.75,7.56-4.39,1.14-6.69-.56-9.19-3.13-3.42-7.91-3.29c-2.02.06-4.26,1.7-5.52,3.29s-.82,2.08-1.15,4.08c-.21,1.28-.33,3.22.14,4.43l.39.87Z"/><path d="M162.5,36.64c-.99-.66-1.13-2.04-1.05-3.31.07-1.2.37-3.57.18-4.76-.39-2.42.07-5.79.02-7.66-.08-3.49-.26-6.27-.18-9.7.02-.95.22-1.86,2.65-1.79s7.36-.36,13.41.34c1.89.22,5.75.94,7.6,1.38,1.13.27,2.12,1.08,3.04,1.75,1.1.81,2.08,1.29,2.89,2.58.71,1.13,1.17,2.52,1.44,3.81.54,2.62,1.05,5.29.23,7.85-.58,1.82-2.34,4.62-3.87,5.87-1.99,1.62-2.97,1.93-5.49,2.65-1.4.4-3.36.83-4.82.92-2.14.13-4.65.54-6.79.61-3.11.1-2.62.01-5.73.03,0,0-2.54.09-3.54-.57ZM168.82,15.31c-1.99,0-.43,3.45-.39,8.27l-.08,4.35-.13,3.5c-.12,1.62,3.09-.24,4.88-.4,4.56-.42,7.82-.69,9.73-1.74,2.84-1.56,2.85-3.52,2.88-4.29.1-2.75-.21-3.59-1.68-5.31-.51-.59-1.7-2.17-2.4-2.59-1.57-.94-3.15-1.44-4-1.53-3.34-.35-3.86-.69-7.14-.35"/></svg>