<?xml version="1.0" encoding="UTF-8"?><svg xmlns="http://www.w3.org/2000/svg" viewBox="0 0 48 48"><path d="M38.73,37.26c-.62-1.81-1.87-3.29-2.89-4.87-.75-1.16-1.53-2.45-2.58-3.37-.63-.55-1.4-.97-2.26-.76-.34.08-.68.27-1,.46-.47-.62-.95-1.24-1.37-1.89.64-.52,1.19-1.12,1.5-1.77l.61-.99c1.02-2,1.38-3.1,1.78-6,.12-.88-.2-2.59-.47-4.32-.17-1.05-1.14-2.3-1.52-3.29-.83-2.13-2.72-3.82-4.92-4.42-1.41-.38-2.89-.34-4.35-.25-1.48.1-2.96.24-4.44.44-.91.12-1.83.27-2.64.69-.84.43-1.51,1.13-2.13,1.84-.77.88-1.5,1.8-2.18,2.75-.55.77-1.07,1.58-1.31,2.49-.2.78-.19,1.6-.16,2.4.07,1.59.22,3.19.69,4.71,1.02,3.28,3.59,6.02,6.75,7.36,3.16,1.34,6.87,1.3,10.04-.01.06-.02.12-.06.18-.08.08.13.15.26.24.38.38.55.8,1.07,1.19,1.61-.4.31-.76.66-1,1.1-.46.85-.34,1.85.21,2.63.51.73,1.04,1.46,1.54,2.19.68.99,1.34,1.99,2.08,2.93.3.39.62.78.97,1.13.05.05.09.1.14.15-.08-.08-.35-.44.19.23.13.16.25.32.39.46.29.3.63.59,1.01.79,1.35.71,2.5.16,3.67-.55,1.49-.9,2.68-2.32,2.05-4.15ZM27.35,19.09c-.27,1-.86,2.09-1.49,2.91-.96,1.24-1.39,1.61-2.86,2.16l-1.95.6c-5.14.42-5.66-1.14-7.17-3.27-.72-1.02-.89-2.36-1.06-3.59-.11-.83-.04-2.13.26-2.91.41-1.07,1.21-2.16,2.08-2.91.86-.75,1.35-.57,3.17-1.56.68-.37,2.03-.79,2.81-.73.84.07,1.56.18,2.88.69.77.3,1.23.78,1.86,1.31,1.1.91,1.66,1.72,1.76,3.15s.07,2.78-.3,4.16ZM35.51,38.44c-.22.21-.15.15-.46.33-.14.08-.16.08-.3.16-.06.04-.15.12-.21.16,0,0-.03.02-.12.03-.07.03-.2-.21-.26-.27-.25-.26-.27-.31-.5-.59-.27-.34-.56-.65-.83-1-.06-.07-.11-.14-.16-.22,0-.01-.01-.01-.02-.02-.12-.18-.25-.35-.37-.53-.26-.38-.51-.76-.76-1.14-.39-.6-.79-1.2-1.19-1.8-.25-.37-.43-.64-.68-1.01-.01-.02-.07-.09-.07-.17,0-.05.06-.07.07-.08.11-.07.15-.07.27-.14.4-.23.7-.4,1.07-.67,0,0,.08-.05.08-.05.04-.02.13-.06.2,0,.07.03.15.14.24.25.07.09.14.17.2.26.03.04.07.09.1.14-.02-.02-.02-.03-.03-.04.02.02.04.05.05.06.31.44.61.89.9,1.34.55.86,1.08,1.72,1.65,2.56.28.41.54.8.78,1.24.1.2.21.4.31.6.01.03.03.07.06.14.02.07.06.15.07.18,0,.02.03.07.01.13,0,.06-.1.14-.11.15Z" fill="currentColor" /></svg>